<svg xmlns="http://www.w3.org/2000/svg" xmlns:xlink="http://www.w3.org/1999/xlink" zoomAndPan="magnify" preserveAspectRatio="xMidYMid meet" version="1.0" viewBox="75.12 75 158 64.36"><defs><g/><clipPath id="a3bb703666"><path d="M 75.121094 75 L 224.894531 75 L 224.894531 139.355469 L 75.121094 139.355469 Z M 75.121094 75 " clip-rule="nonzero"/></clipPath><clipPath id="a95b9a0386"><path d="M 75.121094 78 L 224 78 L 224 138 L 75.121094 138 Z M 75.121094 78 " clip-rule="nonzero"/></clipPath></defs><g clip-path="url(#a3bb703666)"><path fill="transparent" d="M 75.121094 75.007812 L 224.894531 75.007812 L 224.894531 139.304688 L 75.121094 139.304688 Z M 75.121094 75.007812 " fill-opacity="1" fill-rule="nonzero"/></g><g clip-path="url(#a95b9a0386)"><path fill="#575757" d="M 223.628906 106.359375 L 104.042969 106.359375 L 104.042969 117.015625 L 122.449219 117.015625 C 120.84375 120.34375 118.644531 122.847656 115.847656 124.539062 C 113.105469 126.175781 109.867188 126.996094 106.136719 126.996094 C 103.644531 126.996094 101.261719 126.496094 98.988281 125.5 C 96.707031 124.566406 94.664062 123.199219 92.851562 121.410156 C 91.089844 119.664062 89.738281 117.664062 88.808594 115.375 C 87.929688 113.09375 87.492188 110.609375 87.492188 107.929688 C 87.492188 105.445312 87.976562 103.0625 88.964844 100.78125 C 89.953125 98.445312 91.371094 96.359375 93.234375 94.515625 C 95.003906 92.78125 96.972656 91.484375 99.144531 90.648438 C 101.261719 89.800781 103.59375 89.378906 106.136719 89.378906 C 109.140625 89.378906 111.832031 89.929688 114.21875 91.015625 C 116.035156 91.855469 117.734375 93.085938 119.308594 94.703125 C 121.003906 97.222656 121.359375 97.277344 122.671875 99.75 L 135.949219 99.75 C 135.25 98.246094 134.484375 96.851562 133.660156 95.542969 C 130.949219 90.011719 127.339844 85.773438 122.84375 82.824219 C 118.230469 79.898438 112.890625 78.433594 106.835938 78.433594 C 102.480469 78.433594 98.496094 79.125 94.867188 80.511719 C 91.242188 81.90625 88.007812 83.996094 85.160156 86.773438 C 82.097656 89.601562 79.765625 92.824219 78.167969 96.457031 C 76.617188 100.085938 75.84375 103.882812 75.84375 107.851562 C 75.84375 111.671875 76.484375 115.328125 77.78125 118.804688 C 79.121094 122.230469 81.039062 125.308594 83.527344 128.039062 C 86.476562 131.21875 89.894531 133.652344 93.785156 135.339844 C 97.617188 137.027344 101.726562 137.871094 106.136719 137.871094 C 112.367188 137.871094 117.832031 136.339844 122.53125 133.292969 L 122.53125 137.871094 L 136.664062 137.871094 L 136.664062 116.832031 L 223.628906 116.832031 Z M 223.628906 106.359375 " fill-opacity="1" fill-rule="nonzero"/></g><path fill="#575757" d="M 146.171875 93.507812 C 146.550781 94.53125 147.121094 95.441406 147.882812 96.222656 C 148.652344 97.019531 149.550781 97.640625 150.550781 98.0625 C 151.535156 98.507812 152.554688 98.734375 153.628906 98.734375 C 155.984375 98.734375 157.9375 97.917969 159.476562 96.289062 C 161.039062 94.65625 161.8125 92.589844 161.8125 90.085938 C 161.8125 89.019531 161.628906 88.027344 161.246094 87.101562 C 160.882812 86.167969 160.332031 85.296875 159.574219 84.5 C 158.707031 83.535156 157.800781 82.859375 156.863281 82.453125 C 155.929688 82.027344 154.851562 81.816406 153.628906 81.816406 C 152.539062 81.816406 151.535156 82.007812 150.621094 82.382812 C 149.683594 82.769531 148.832031 83.351562 148.074219 84.125 C 147.269531 84.949219 146.664062 85.894531 146.242188 86.945312 C 145.8125 87.96875 145.605469 89.035156 145.605469 90.160156 C 145.605469 91.34375 145.792969 92.457031 146.171875 93.507812 M 141.015625 84.75 C 141.746094 83.042969 142.777344 81.523438 144.136719 80.1875 C 145.441406 78.902344 146.886719 77.929688 148.472656 77.277344 C 150.136719 76.597656 151.855469 76.253906 153.652344 76.253906 C 155.503906 76.253906 157.242188 76.597656 158.875 77.277344 C 160.507812 77.929688 161.976562 78.914062 163.28125 80.222656 C 164.613281 81.535156 165.632812 83.042969 166.332031 84.75 C 167.054688 86.433594 167.414062 88.222656 167.414062 90.117188 C 167.414062 91.988281 167.101562 93.746094 166.46875 95.378906 C 165.886719 97.015625 165.023438 98.472656 163.882812 99.734375 C 162.5 101.207031 160.933594 102.328125 159.1875 103.09375 C 157.433594 103.871094 155.578125 104.257812 153.625 104.257812 C 151.632812 104.257812 149.785156 103.855469 148.054688 103.066406 C 146.308594 102.273438 144.757812 101.125 143.4375 99.625 C 142.308594 98.339844 141.445312 96.890625 140.839844 95.269531 C 140.261719 93.640625 139.964844 91.921875 139.964844 90.117188 C 139.964844 88.246094 140.316406 86.457031 141.015625 84.75 " fill-opacity="1" fill-rule="nonzero"/><path fill="#575757" d="M 173.140625 93.582031 C 173.523438 94.636719 174.101562 95.5625 174.882812 96.363281 C 175.679688 97.191406 176.59375 97.820312 177.621094 98.253906 C 178.632812 98.710938 179.679688 98.941406 180.777344 98.941406 C 183.1875 98.941406 185.191406 98.105469 186.765625 96.4375 C 188.359375 94.765625 189.167969 92.644531 189.167969 90.078125 C 189.167969 88.992188 188.96875 87.972656 188.582031 87.03125 C 188.21875 86.070312 187.644531 85.175781 186.863281 84.355469 C 185.972656 83.367188 185.050781 82.667969 184.09375 82.253906 C 183.128906 81.828125 182.019531 81.609375 180.777344 81.609375 C 179.65625 81.609375 178.632812 81.796875 177.691406 82.195312 C 176.726562 82.585938 175.859375 83.175781 175.082031 83.980469 C 174.265625 84.820312 173.636719 85.785156 173.207031 86.863281 C 172.769531 87.914062 172.554688 89.011719 172.554688 90.15625 C 172.554688 91.363281 172.753906 92.511719 173.140625 93.582031 M 168.160156 84.75 C 168.894531 83.042969 169.929688 81.523438 171.285156 80.1875 C 172.589844 78.902344 174.035156 77.929688 175.625 77.277344 C 177.28125 76.597656 179.003906 76.253906 180.804688 76.253906 C 182.648438 76.253906 184.390625 76.597656 186.023438 77.277344 C 187.65625 77.929688 189.121094 78.914062 190.433594 80.222656 C 191.765625 81.535156 192.78125 83.042969 193.480469 84.75 C 194.199219 86.433594 194.566406 88.222656 194.566406 90.117188 C 194.566406 91.988281 194.242188 93.746094 193.617188 95.378906 C 193.03125 97.019531 192.175781 98.472656 191.035156 99.730469 C 189.648438 101.207031 188.085938 102.328125 186.332031 103.09375 C 184.582031 103.871094 182.726562 104.257812 180.769531 104.257812 C 178.789062 104.257812 176.933594 103.855469 175.203125 103.066406 C 173.449219 102.273438 171.917969 101.125 170.585938 99.625 C 169.464844 98.339844 168.601562 96.890625 167.988281 95.269531 C 167.40625 93.640625 167.113281 91.921875 167.113281 90.117188 C 167.113281 88.246094 167.460938 86.457031 168.160156 84.75 " fill-opacity="1" fill-rule="nonzero"/><path fill="#575757" d="M 205.816406 99.242188 C 208.851562 99.242188 211.226562 98.453125 212.917969 96.878906 C 214.578125 95.324219 215.417969 93.167969 215.417969 90.40625 C 215.417969 87.496094 214.523438 85.28125 212.753906 83.75 C 210.984375 82.179688 208.398438 81.386719 205.011719 81.386719 L 201.519531 81.386719 L 201.519531 99.242188 Z M 195.855469 104.257812 L 195.855469 76.296875 L 205.972656 76.296875 C 210.488281 76.296875 214.183594 77.617188 217.042969 80.265625 C 219.871094 82.878906 221.292969 86.234375 221.292969 90.332031 C 221.292969 92.703125 220.746094 94.886719 219.664062 96.878906 C 218.605469 98.835938 217.097656 100.480469 215.140625 101.785156 C 213.605469 102.753906 211.945312 103.421875 210.175781 103.78125 C 208.746094 104.101562 206.945312 104.257812 204.777344 104.257812 Z M 195.855469 104.257812 " fill-opacity="1" fill-rule="nonzero"/><g fill="#575757" fill-opacity="1"><g transform="translate(138.657557, 133.428694)"><g><path d="M 5.226562 -13.457031 C 4.480469 -12.320312 3.917969 -11.164062 3.53125 -9.996094 C 3.121094 -8.808594 2.917969 -7.484375 2.917969 -6.058594 C 2.917969 -5.445312 2.96875 -4.820312 3.070312 -4.175781 C 3.171875 -3.511719 3.324219 -2.867188 3.53125 -2.222656 C 3.714844 -1.578125 3.953125 -0.949219 4.242188 -0.355469 C 4.515625 0.253906 4.851562 0.816406 5.226562 1.324219 L 3.867188 1.324219 C 3.53125 0.882812 3.222656 0.40625 2.953125 -0.136719 C 2.648438 -0.660156 2.394531 -1.238281 2.1875 -1.882812 C 1.96875 -2.496094 1.796875 -3.15625 1.679688 -3.867188 C 1.542969 -4.566406 1.492188 -5.292969 1.492188 -6.058594 C 1.492188 -6.804688 1.5625 -7.550781 1.695312 -8.265625 C 1.816406 -8.960938 1.984375 -9.621094 2.222656 -10.265625 C 2.425781 -10.878906 2.679688 -11.472656 2.988281 -12.015625 C 3.257812 -12.539062 3.5625 -13.015625 3.902344 -13.457031 Z M 5.226562 -13.457031 "/></g></g></g><g fill="#575757" fill-opacity="1"><g transform="translate(143.017122, 133.428694)"><g><path d="M 2.496094 -12.421875 L 13.40625 -12.421875 L 13.40625 -11.148438 L 8.824219 -11.148438 C 8.925781 -10.503906 9.144531 -9.960938 9.46875 -9.484375 C 9.773438 -9.011719 10.164062 -8.585938 10.640625 -8.246094 C 11.082031 -7.890625 11.589844 -7.601562 12.148438 -7.382812 C 12.691406 -7.144531 13.234375 -6.972656 13.8125 -6.855469 L 13.304688 -5.632812 C 12.726562 -5.734375 12.167969 -5.90625 11.625 -6.144531 C 11.0625 -6.363281 10.554688 -6.636719 10.078125 -6.957031 C 9.605469 -7.261719 9.179688 -7.636719 8.824219 -8.042969 C 8.449219 -8.449219 8.164062 -8.890625 7.957031 -9.382812 C 7.753906 -8.890625 7.464844 -8.449219 7.109375 -8.042969 C 6.738281 -7.636719 6.3125 -7.261719 5.835938 -6.957031 C 5.363281 -6.636719 4.851562 -6.363281 4.308594 -6.144531 C 3.75 -5.90625 3.191406 -5.734375 2.628906 -5.632812 L 2.121094 -6.855469 C 2.679688 -6.972656 3.242188 -7.144531 3.800781 -7.382812 C 4.34375 -7.601562 4.835938 -7.890625 5.292969 -8.246094 C 5.734375 -8.585938 6.125 -9.011719 6.464844 -9.484375 C 6.769531 -9.960938 6.992188 -10.503906 7.09375 -11.148438 L 2.496094 -11.148438 Z M 7.144531 2.324219 L 7.144531 -2.699219 L 0.710938 -2.699219 L 0.710938 -4.003906 L 15.152344 -4.003906 L 15.152344 -2.699219 L 8.6875 -2.699219 L 8.6875 2.324219 Z M 7.144531 2.324219 "/></g></g></g><g fill="#575757" fill-opacity="1"><g transform="translate(157.386811, 133.428694)"><g><path d="M 2.054688 -13.457031 C 2.359375 -13.015625 2.664062 -12.539062 2.96875 -12.015625 C 3.257812 -11.472656 3.511719 -10.878906 3.75 -10.265625 C 3.953125 -9.621094 4.140625 -8.960938 4.277344 -8.265625 C 4.394531 -7.550781 4.460938 -6.804688 4.460938 -6.058594 C 4.460938 -5.292969 4.394531 -4.566406 4.277344 -3.867188 C 4.140625 -3.15625 3.972656 -2.496094 3.765625 -1.882812 C 3.546875 -1.238281 3.292969 -0.660156 3.019531 -0.136719 C 2.714844 0.40625 2.410156 0.882812 2.085938 1.324219 L 0.730469 1.324219 C 1.085938 0.796875 1.410156 0.238281 1.714844 -0.375 C 1.984375 -0.96875 2.238281 -1.59375 2.445312 -2.238281 C 2.628906 -2.867188 2.78125 -3.511719 2.882812 -4.175781 C 2.988281 -4.820312 3.039062 -5.445312 3.039062 -6.058594 C 3.039062 -7.484375 2.832031 -8.808594 2.445312 -9.996094 C 2.035156 -11.164062 1.460938 -12.320312 0.730469 -13.457031 Z M 2.054688 -13.457031 "/></g></g></g><g fill="#575757" fill-opacity="1"><g transform="translate(161.746375, 133.428694)"><g><path d="M 12.015625 0.949219 C 12.015625 1.253906 11.929688 1.5625 11.777344 1.851562 C 11.605469 2.121094 11.371094 2.359375 11.046875 2.5625 C 10.707031 2.765625 10.300781 2.917969 9.792969 3.054688 C 9.28125 3.15625 8.671875 3.222656 7.976562 3.222656 C 7.261719 3.222656 6.667969 3.15625 6.160156 3.054688 C 5.652344 2.917969 5.226562 2.765625 4.902344 2.5625 C 4.566406 2.339844 4.328125 2.105469 4.191406 1.832031 C 4.023438 1.542969 3.953125 1.253906 3.953125 0.949219 C 3.953125 0.628906 4.023438 0.339844 4.191406 0.0664062 C 4.328125 -0.203125 4.566406 -0.457031 4.902344 -0.679688 C 5.226562 -0.882812 5.652344 -1.035156 6.160156 -1.171875 C 6.652344 -1.289062 7.261719 -1.359375 7.976562 -1.359375 C 8.6875 -1.359375 9.300781 -1.289062 9.808594 -1.171875 C 10.316406 -1.035156 10.722656 -0.882812 11.0625 -0.679688 C 11.386719 -0.457031 11.625 -0.203125 11.792969 0.0664062 C 11.929688 0.339844 12.015625 0.628906 12.015625 0.949219 Z M 2.664062 -12.710938 L 13.234375 -12.710938 L 13.234375 -11.453125 L 8.738281 -11.453125 C 8.808594 -11.082031 8.992188 -10.742188 9.265625 -10.4375 C 9.535156 -10.113281 9.875 -9.824219 10.300781 -9.585938 C 10.707031 -9.332031 11.164062 -9.128906 11.707031 -8.960938 C 12.234375 -8.789062 12.8125 -8.671875 13.421875 -8.601562 L 12.964844 -7.363281 C 11.878906 -7.484375 10.878906 -7.773438 9.996094 -8.246094 C 9.078125 -8.6875 8.398438 -9.300781 7.941406 -10.046875 C 7.464844 -9.300781 6.789062 -8.6875 5.90625 -8.246094 C 4.988281 -7.773438 4.003906 -7.484375 2.9375 -7.363281 L 2.476562 -8.601562 C 3.089844 -8.671875 3.648438 -8.789062 4.191406 -8.960938 C 4.71875 -9.128906 5.191406 -9.332031 5.617188 -9.585938 C 6.023438 -9.824219 6.363281 -10.113281 6.636719 -10.4375 C 6.890625 -10.742188 7.058594 -11.082031 7.144531 -11.453125 L 2.664062 -11.453125 Z M 0.710938 -5.210938 L 0.710938 -6.515625 L 7.179688 -6.515625 L 7.179688 -8.246094 L 8.722656 -8.246094 L 8.722656 -6.515625 L 15.152344 -6.515625 L 15.152344 -5.210938 Z M 2.511719 -1.867188 L 2.511719 -3.121094 L 7.179688 -3.121094 L 7.179688 -4.429688 L 8.722656 -4.429688 L 8.722656 -3.121094 L 13.441406 -3.121094 L 13.441406 -1.867188 Z M 10.46875 0.949219 C 10.46875 0.578125 10.265625 0.304688 9.894531 0.101562 C 9.503906 -0.101562 8.859375 -0.21875 7.976562 -0.21875 C 7.109375 -0.21875 6.480469 -0.101562 6.09375 0.101562 C 5.683594 0.304688 5.496094 0.578125 5.496094 0.949219 C 5.496094 1.304688 5.683594 1.59375 6.09375 1.796875 C 6.464844 2.003906 7.09375 2.105469 7.976562 2.105469 C 8.824219 2.105469 9.46875 2.003906 9.875 1.796875 C 10.265625 1.59375 10.46875 1.304688 10.46875 0.949219 Z M 10.46875 0.949219 "/></g></g></g><g fill="#575757" fill-opacity="1"><g transform="translate(176.116065, 133.428694)"><g><path d="M 0.710938 -3.714844 L 0.710938 -5.023438 L 15.171875 -5.023438 L 15.171875 -3.714844 Z M 2.664062 2.578125 L 2.664062 -2.1875 L 4.207031 -2.1875 L 4.207031 1.273438 L 13.441406 1.273438 L 13.441406 2.578125 Z M 12.320312 -9.671875 C 12.320312 -9.199219 12.21875 -8.757812 12.046875 -8.347656 C 11.84375 -7.941406 11.574219 -7.585938 11.234375 -7.3125 C 10.859375 -7.007812 10.417969 -6.789062 9.875 -6.636719 C 9.332031 -6.464844 8.6875 -6.378906 7.976562 -6.378906 C 7.230469 -6.378906 6.601562 -6.464844 6.058594 -6.636719 C 5.515625 -6.789062 5.058594 -7.007812 4.71875 -7.3125 C 4.34375 -7.585938 4.074219 -7.941406 3.902344 -8.347656 C 3.714844 -8.757812 3.632812 -9.199219 3.632812 -9.671875 C 3.632812 -10.148438 3.714844 -10.589844 3.902344 -10.996094 C 4.074219 -11.402344 4.34375 -11.742188 4.71875 -12.046875 C 5.058594 -12.320312 5.515625 -12.558594 6.058594 -12.726562 C 6.601562 -12.878906 7.230469 -12.964844 7.976562 -12.964844 C 8.6875 -12.964844 9.332031 -12.878906 9.875 -12.726562 C 10.417969 -12.558594 10.859375 -12.320312 11.234375 -12.046875 C 11.574219 -11.742188 11.84375 -11.402344 12.046875 -10.996094 C 12.21875 -10.589844 12.320312 -10.148438 12.320312 -9.671875 Z M 5.175781 -9.671875 C 5.175781 -9.402344 5.210938 -9.164062 5.3125 -8.925781 C 5.394531 -8.6875 5.550781 -8.46875 5.769531 -8.296875 C 5.972656 -8.109375 6.261719 -7.957031 6.636719 -7.855469 C 6.992188 -7.738281 7.433594 -7.6875 7.976562 -7.6875 C 8.5 -7.6875 8.941406 -7.738281 9.316406 -7.855469 C 9.671875 -7.957031 9.960938 -8.109375 10.179688 -8.316406 C 10.386719 -8.484375 10.539062 -8.707031 10.640625 -8.941406 C 10.722656 -9.179688 10.777344 -9.417969 10.777344 -9.6875 C 10.777344 -9.925781 10.722656 -10.179688 10.640625 -10.417969 C 10.539062 -10.65625 10.386719 -10.859375 10.179688 -11.046875 C 9.960938 -11.214844 9.671875 -11.371094 9.316406 -11.488281 C 8.941406 -11.589844 8.5 -11.65625 7.976562 -11.65625 C 7.433594 -11.65625 6.992188 -11.589844 6.636719 -11.488281 C 6.261719 -11.371094 5.972656 -11.214844 5.769531 -11.046875 C 5.550781 -10.859375 5.394531 -10.65625 5.3125 -10.417969 C 5.210938 -10.164062 5.175781 -9.910156 5.175781 -9.671875 Z M 5.175781 -9.671875 "/></g></g></g><g fill="#575757" fill-opacity="1"><g transform="translate(190.485753, 133.428694)"><g><path d="M 1.425781 -8.09375 C 1.425781 -8.738281 1.542969 -9.332031 1.78125 -9.875 C 2.003906 -10.402344 2.324219 -10.859375 2.730469 -11.25 C 3.140625 -11.625 3.613281 -11.914062 4.15625 -12.117188 C 4.683594 -12.320312 5.261719 -12.421875 5.871094 -12.421875 C 6.480469 -12.421875 7.058594 -12.320312 7.601562 -12.117188 C 8.144531 -11.914062 8.621094 -11.625 9.027344 -11.25 C 9.433594 -10.859375 9.757812 -10.402344 9.996094 -9.875 C 10.230469 -9.332031 10.351562 -8.738281 10.351562 -8.09375 C 10.351562 -7.414062 10.230469 -6.820312 9.996094 -6.296875 C 9.757812 -5.753906 9.433594 -5.3125 9.027344 -4.9375 C 8.621094 -4.546875 8.144531 -4.257812 7.601562 -4.054688 C 7.058594 -3.851562 6.480469 -3.75 5.871094 -3.75 C 5.261719 -3.75 4.683594 -3.851562 4.15625 -4.074219 C 3.613281 -4.277344 3.140625 -4.566406 2.730469 -4.953125 C 2.324219 -5.328125 2.003906 -5.769531 1.78125 -6.3125 C 1.542969 -6.839844 1.425781 -7.433594 1.425781 -8.09375 Z M 8.808594 -8.09375 C 8.808594 -8.992188 8.535156 -9.722656 8.027344 -10.285156 C 7.484375 -10.828125 6.769531 -11.113281 5.871094 -11.113281 C 5.429688 -11.113281 5.039062 -11.03125 4.699219 -10.894531 C 4.328125 -10.742188 4.023438 -10.539062 3.785156 -10.285156 C 3.511719 -10.011719 3.324219 -9.6875 3.191406 -9.332031 C 3.039062 -8.960938 2.96875 -8.550781 2.96875 -8.109375 C 2.96875 -7.636719 3.039062 -7.210938 3.191406 -6.839844 C 3.324219 -6.464844 3.511719 -6.144531 3.785156 -5.886719 C 4.023438 -5.617188 4.328125 -5.414062 4.699219 -5.277344 C 5.039062 -5.125 5.429688 -5.058594 5.871094 -5.058594 C 6.769531 -5.058594 7.484375 -5.328125 8.027344 -5.886719 C 8.535156 -6.429688 8.808594 -7.160156 8.808594 -8.09375 Z M 13.898438 2.375 L 12.355469 2.375 L 12.355469 -12.980469 L 13.898438 -12.980469 Z M 13.898438 2.375 "/></g></g></g><g fill="#575757" fill-opacity="1"><g transform="translate(204.855441, 133.428694)"><g><path d="M 0.882812 -8.707031 C 0.882812 -9.28125 0.96875 -9.808594 1.136719 -10.300781 C 1.304688 -10.777344 1.542969 -11.183594 1.867188 -11.539062 C 2.171875 -11.878906 2.5625 -12.148438 3.019531 -12.355469 C 3.460938 -12.539062 3.953125 -12.640625 4.515625 -12.640625 C 5.496094 -12.640625 6.296875 -12.355469 6.941406 -11.792969 C 7.550781 -11.214844 7.941406 -10.46875 8.109375 -9.554688 L 9.722656 -9.554688 L 9.722656 -12.691406 L 11.265625 -12.691406 L 11.265625 -2.121094 L 9.722656 -2.121094 L 9.722656 -8.246094 L 8.164062 -8.246094 C 8.109375 -7.722656 7.992188 -7.246094 7.804688 -6.839844 C 7.601562 -6.398438 7.363281 -6.042969 7.058594 -5.734375 C 6.738281 -5.429688 6.363281 -5.191406 5.9375 -5.023438 C 5.496094 -4.851562 5.023438 -4.769531 4.515625 -4.769531 C 3.953125 -4.769531 3.460938 -4.871094 3.019531 -5.074219 C 2.5625 -5.261719 2.171875 -5.53125 1.867188 -5.886719 C 1.542969 -6.226562 1.304688 -6.636719 1.136719 -7.128906 C 0.96875 -7.601562 0.882812 -8.128906 0.882812 -8.707031 Z M 3.257812 2.410156 L 3.257812 -3.242188 L 4.800781 -3.242188 L 4.800781 1.101562 L 14.390625 1.101562 L 14.390625 2.410156 Z M 6.667969 -8.707031 C 6.667969 -9.484375 6.480469 -10.113281 6.125 -10.589844 C 5.753906 -11.0625 5.210938 -11.300781 4.53125 -11.300781 C 3.886719 -11.300781 3.375 -11.0625 3.003906 -10.589844 C 2.613281 -10.113281 2.425781 -9.484375 2.425781 -8.722656 C 2.425781 -7.941406 2.613281 -7.3125 3.003906 -6.839844 C 3.375 -6.347656 3.886719 -6.109375 4.53125 -6.109375 C 5.210938 -6.109375 5.753906 -6.347656 6.125 -6.820312 C 6.480469 -7.296875 6.667969 -7.925781 6.667969 -8.707031 Z M 12.691406 -1.953125 L 12.691406 -12.980469 L 14.238281 -12.980469 L 14.238281 -1.953125 Z M 12.691406 -1.953125 "/></g></g></g><g fill="#575757" fill-opacity="1"><g transform="translate(219.225129, 133.428694)"><g><path d="M 9.808594 -12.421875 L 9.808594 -11.113281 L 6.414062 -11.113281 L 6.414062 -9.570312 C 6.414062 -8.109375 6.769531 -6.890625 7.484375 -5.921875 C 8.179688 -4.9375 9.144531 -4.140625 10.402344 -3.53125 L 9.585938 -2.460938 C 9.179688 -2.628906 8.789062 -2.867188 8.398438 -3.140625 C 7.992188 -3.410156 7.621094 -3.714844 7.28125 -4.074219 C 6.90625 -4.410156 6.585938 -4.800781 6.3125 -5.226562 C 6.007812 -5.632812 5.785156 -6.058594 5.617188 -6.53125 C 5.445312 -6.058594 5.210938 -5.617188 4.921875 -5.191406 C 4.617188 -4.75 4.277344 -4.359375 3.902344 -4.003906 C 3.53125 -3.632812 3.140625 -3.292969 2.730469 -3.003906 C 2.308594 -2.699219 1.902344 -2.460938 1.492188 -2.289062 L 0.660156 -3.34375 C 1.273438 -3.648438 1.851562 -4.003906 2.375 -4.429688 C 2.882812 -4.835938 3.308594 -5.3125 3.683594 -5.855469 C 4.039062 -6.363281 4.328125 -6.941406 4.53125 -7.566406 C 4.734375 -8.179688 4.835938 -8.859375 4.835938 -9.570312 L 4.835938 -11.113281 L 1.441406 -11.113281 L 1.441406 -12.421875 Z M 13.898438 2.375 L 12.355469 2.375 L 12.355469 -12.980469 L 13.898438 -12.980469 Z M 13.898438 2.375 "/></g></g></g></svg>